<svg viewBox="0 0 30 30" xmlns="http://www.w3.org/2000/svg" xmlns:xlink="http://www.w3.org/1999/xlink" width="30.000000" height="30.000000" fill="none">
	<rect id="phone 1" width="30.000000" height="30.000000" x="0.000000" y="0.000000" fill="rgb(255,255,255)" fill-opacity="0" />
	<g id="Group">
		<path id="Vector" d="M10.0757 12.3489C11.1038 11.3208 11.1038 9.64807 10.0757 8.61999L6.46006 5.00434C5.90699 4.45122 5.14029 4.17096 4.3573 4.23542C3.58926 4.29864 2.89457 4.69016 2.45143 5.3095C2.35943 5.43805 2.27061 5.56848 2.18359 5.69997L9.45408 12.9705L10.0757 12.3489Z" fill="rgb(255,255,255)" fill-rule="nonzero" />
		<path id="Vector" d="M24.9955 23.5394L21.3798 19.9237C20.3519 18.8958 18.679 18.8956 17.6509 19.9237L17.0293 20.5454L24.3001 27.8161C24.4316 27.7291 24.5618 27.6399 24.6903 27.548C25.3096 27.1049 25.7011 26.4102 25.7644 25.6421C25.8289 24.859 25.5486 24.0926 24.9955 23.5394Z" fill="rgb(255,255,255)" fill-rule="nonzero" />
		<path id="Vector" d="M14.5435 21.939C13.8391 21.939 13.1771 21.6648 12.679 21.1668L8.83292 17.3207C8.33494 16.8227 8.0606 16.1605 8.0606 15.4562C8.0606 15.0561 8.14937 14.6698 8.31707 14.3193L1.2857 7.28784C0.296635 9.36458 -0.14106 11.6913 0.0395256 14.0267C0.282865 17.1738 1.64001 20.1301 3.86107 22.3511L7.64869 26.1386C9.86962 28.3596 12.826 29.7168 15.973 29.9602C16.3169 29.9868 16.6605 30 17.0033 30C18.9882 30 20.9409 29.5575 22.7118 28.7141L15.6804 21.6826C15.3299 21.8503 14.9435 21.939 14.5435 21.939Z" fill="rgb(255,255,255)" fill-rule="nonzero" />
		<path id="Vector" d="M17.6953 0C17.2099 0 16.8164 0.393516 16.8164 0.878906C16.8164 1.3643 17.2099 1.75781 17.6953 1.75781C23.5109 1.75781 28.2422 6.48914 28.2422 12.3047C28.2422 12.7901 28.6357 13.1836 29.1211 13.1836C29.6065 13.1836 30 12.7901 30 12.3047C30 5.51988 24.4801 0 17.6953 0Z" fill="rgb(255,255,255)" fill-rule="nonzero" />
		<path id="Vector" d="M17.6953 12.3039C17.6953 12.3039 17.6953 12.3042 17.6953 12.3047C17.6953 12.7901 18.0888 13.1836 18.5742 13.1836C19.0596 13.1836 19.4531 12.7901 19.4531 12.3047C19.4531 11.3354 18.6646 10.5469 17.6953 10.5469C17.2099 10.5469 16.8164 10.94 16.8164 11.4254C16.8164 11.9108 17.2099 12.3039 17.6953 12.3039Z" fill="rgb(255,255,255)" fill-rule="nonzero" />
		<path id="Vector" d="M17.6953 8.78906C19.6338 8.78906 21.2109 10.3662 21.2109 12.3047C21.2109 12.7901 21.6045 13.1836 22.0898 13.1836C22.5752 13.1836 22.9688 12.7901 22.9688 12.3047C22.9688 9.39691 20.6031 7.03125 17.6953 7.03125C17.2099 7.03125 16.8164 7.42477 16.8164 7.91016C16.8164 8.39555 17.2099 8.78906 17.6953 8.78906Z" fill="rgb(255,255,255)" fill-rule="nonzero" />
		<path id="Vector" d="M17.6953 3.51562C17.2099 3.51562 16.8164 3.90914 16.8164 4.39453C16.8164 4.87992 17.2099 5.27344 17.6953 5.27344C21.5723 5.27344 24.7266 8.42766 24.7266 12.3047C24.7266 12.7901 25.1201 13.1836 25.6055 13.1836C26.0909 13.1836 26.4844 12.7901 26.4844 12.3047C26.4844 7.4584 22.5416 3.51562 17.6953 3.51562Z" fill="rgb(255,255,255)" fill-rule="nonzero" />
	</g>
</svg>
