<svg viewBox="0 0 24 24" xmlns="http://www.w3.org/2000/svg" xmlns:xlink="http://www.w3.org/1999/xlink" width="24.000000" height="24.000000" fill="none" customFrame="#000000">
	<defs>
		<clipPath id="clipPath_14">
			<rect width="24.000000" height="24.000000" x="0.000000" y="0.000000" fill="rgb(255,255,255)" />
		</clipPath>
	</defs>
	<g id="Group 1120">
		<g id="bx:bxs-check-circle" clip-path="url(#clipPath_14)" customFrame="url(#clipPath_14)">
			<rect id="bx:bxs-check-circle" width="24.000000" height="24.000000" x="0.000000" y="0.000000" fill="rgb(255,255,255)" fill-opacity="0" />
			<path id="Vector" d="M12 2C6.486 2 2 6.486 2 12C2 17.514 6.486 22 12 22C17.514 22 22 17.514 22 12C22 6.486 17.514 2 12 2ZM10.001 16.413L6.99545 13.4139C6.6047 13.024 6.60391 12.3912 6.99369 12.0003C7.38371 11.6092 8.01701 11.6085 8.40793 11.9987L9.999 13.587L14.586 9C14.9765 8.60954 15.6095 8.60954 16 9C16.3905 9.39046 16.3905 10.0235 16 10.414L10.001 16.413Z" fill="rgb(47,171,115)" fill-rule="nonzero" />
		</g>
	</g>
</svg>
