<svg viewBox="0 0 21 21" xmlns="http://www.w3.org/2000/svg" xmlns:xlink="http://www.w3.org/1999/xlink" width="21.000000" height="21.000000" fill="none">
	<rect id="arrow 1" width="21.000000" height="21.000000" x="0.000000" y="0.000000" fill="rgb(255,255,255)" fill-opacity="0" transform="matrix(-1,-1.61329e-16,1.61329e-16,-1,21,21)" />
	<g id="Group">
		<g id="Group">
			<path id="Vector" d="M19.7378 7.53088C19.6519 7.51694 19.5649 7.51051 19.4779 7.51163L4.66281 7.51163L4.98586 7.36138C5.30163 7.21192 5.58889 7.00852 5.83479 6.76036L9.98931 2.60584C10.5365 2.08352 10.6284 1.24327 10.2072 0.614979C9.71693 -0.0545431 8.77676 -0.199914 8.10719 0.290337C8.0531 0.329966 8.00169 0.373164 7.95337 0.419649L0.440678 7.93234C-0.146439 8.5188 -0.146955 9.47014 0.439505 10.0573C0.43988 10.0576 0.440303 10.0581 0.440678 10.0584L7.95337 17.5711C8.54096 18.1571 9.4923 18.1558 10.0783 17.5682C10.1244 17.5219 10.1675 17.4727 10.2072 17.4209C10.6284 16.7926 10.5365 15.9523 9.98931 15.43L5.84231 11.268C5.62186 11.0473 5.3684 10.8622 5.09104 10.7196L4.64027 10.5167L19.3952 10.5167C20.1628 10.5452 20.8362 10.009 20.9804 9.25458C21.1132 8.43546 20.5569 7.66376 19.7378 7.53088Z" fill="rgb(220,112,0)" fill-rule="nonzero" transform="matrix(-1,-1.61329e-16,1.61329e-16,-1,21,19.5049)" />
		</g>
	</g>
</svg>
