<svg viewBox="0 0 65 65" xmlns="http://www.w3.org/2000/svg" xmlns:xlink="http://www.w3.org/1999/xlink" width="65.000000" height="65.000000" fill="none" customFrame="#000000">
	<defs>
		<clipPath id="clipPath_6">
			<rect width="30.847458" height="30.847458" x="16.525391" y="17.626953" fill="rgb(255,255,255)" />
		</clipPath>
	</defs>
	<g id="Group 51">
		<circle id="Ellipse 16" cx="32.5" cy="32.5" r="32.5" fill="rgb(255,255,255)" />
		<g id="vr-glasses 1" clip-path="url(#clipPath_6)" customFrame="url(#clipPath_6)">
			<rect id="vr-glasses 1" width="30.847458" height="30.847458" x="16.525391" y="17.626953" fill="rgb(255,255,255)" fill-opacity="0" />
			<g id="Group">
				<path id="Vector" d="M34.5671 40.9054C32.8811 41.468 31.0213 41.4679 29.3305 40.9052C28.8567 40.7474 28.3452 41.0037 28.1876 41.4772C28.03 41.9508 28.2861 42.4626 28.7597 42.6202C29.7894 42.9629 30.8703 43.1341 31.9509 43.1341C33.0316 43.1341 34.1119 42.9627 35.1392 42.6199C35.6126 42.4619 35.8684 41.9501 35.7103 41.4766C35.5524 41.0032 35.0406 40.7476 34.5671 40.9054Z" fill="rgb(220,112,0)" fill-rule="nonzero" />
				<path id="Vector" d="M42.4768 23.5313C42.0921 20.7725 39.7232 18.595 36.7892 18.595L35.7569 18.595L35.7569 18.5307C35.7569 18.0316 35.3522 17.627 34.8531 17.627L29.0451 17.627C28.546 17.627 28.1414 18.0316 28.1414 18.5307L28.1414 18.5949L27.1091 18.5949C24.1997 18.5949 21.8275 20.7421 21.424 23.5306C19.73 23.9162 18.4614 25.4335 18.4614 27.2426L18.4614 34.9867C18.4614 37.4633 20.4787 38.4726 21.3951 38.6904C21.8089 44.2658 26.4904 48.4744 31.9491 48.4744C37.5159 48.4744 42.0925 44.1543 42.5027 38.6906C44.878 38.1267 45.4368 35.9717 45.4368 34.9867L45.4368 27.2427C45.4369 25.4345 44.1695 23.9177 42.4768 23.5313ZM35.7569 20.4024L36.7891 20.4024C39.3462 20.4024 40.4025 22.4931 40.6221 23.435L35.7569 23.435L35.7569 20.4024ZM29.9489 19.4344L33.9494 19.4344L33.9494 23.435L29.9489 23.435L29.9489 19.4344ZM27.1091 20.4024L28.1414 20.4024L28.1414 23.435L23.2798 23.435C23.866 20.9794 26.0905 20.4024 27.1091 20.4024ZM31.9491 46.6669C27.4886 46.6669 23.6757 43.2878 23.2188 38.7944L27.6754 38.7944C28.7844 38.7944 29.8695 38.345 30.6524 37.5615C30.6571 37.5568 30.6617 37.5521 30.6662 37.5474C31.0062 37.2148 31.4727 37.0245 31.9491 37.0245C32.4257 37.0245 32.8921 37.2148 33.2321 37.5474C33.2366 37.5521 33.2412 37.5568 33.2459 37.5615C34.0288 38.345 35.1139 38.7944 36.2229 38.7944L40.6791 38.7944C40.2253 43.2107 36.4833 46.6669 31.9491 46.6669ZM43.6294 34.9867C43.6294 36.1052 42.7178 36.9869 41.6291 36.9869L36.2229 36.9869C35.5968 36.9869 34.9843 36.7362 34.5391 36.2984C34.5342 36.2933 34.5293 36.2882 34.5243 36.2832C33.8467 35.6056 32.9082 35.217 31.9492 35.217C30.9903 35.217 30.0517 35.6056 29.3741 36.2832C29.3691 36.2882 29.3641 36.2932 29.3593 36.2983C28.914 36.7362 28.3015 36.9869 27.6754 36.9869L22.2691 36.9869C21.1839 36.9869 20.2688 36.109 20.2688 34.9867L20.2688 27.2427C20.2688 26.1398 21.1662 25.2425 22.2691 25.2425L41.6291 25.2425C42.732 25.2425 43.6293 26.1398 43.6293 27.2427L43.6293 34.9867L43.6294 34.9867Z" fill="rgb(220,112,0)" fill-rule="nonzero" />
			</g>
		</g>
	</g>
</svg>
