<svg viewBox="0 0 65 65" xmlns="http://www.w3.org/2000/svg" xmlns:xlink="http://www.w3.org/1999/xlink" width="65.000000" height="65.000000" fill="none" customFrame="#000000">
	<defs>
		<clipPath id="clipPath_7">
			<rect width="33.050846" height="33.050846" x="16.525391" y="16.525391" fill="rgb(255,255,255)" />
		</clipPath>
	</defs>
	<g id="Group 52">
		<circle id="Ellipse 17" cx="32.5" cy="32.5" r="32.5" fill="rgb(255,255,255)" />
		<g id="desktop (1) 1" clip-path="url(#clipPath_7)" customFrame="url(#clipPath_7)">
			<rect id="desktop (1) 1" width="33.050846" height="33.050846" x="16.525391" y="16.525391" fill="rgb(255,255,255)" fill-opacity="0" />
			<g id="Page 1">
				<g id="015   AR Object Desktop">
					<path id="Shape" d="M45.7203 18.1777L20.3813 18.1777C18.2528 18.1802 16.5278 19.9051 16.5254 22.0337L16.5254 44.0676C16.5278 46.1961 18.2528 47.9211 20.3813 47.9235L45.7203 47.9235C47.8489 47.9211 49.5738 46.1961 49.5762 44.0676L49.5762 22.0337C49.5738 19.9051 47.8489 18.1802 45.7203 18.1777ZM48.4745 44.0676C48.4727 45.5879 47.2407 46.82 45.7203 46.8218L20.3813 46.8218C18.861 46.82 17.6289 45.5879 17.6271 44.0676L17.6271 22.0337C17.6289 20.5133 18.861 19.2812 20.3813 19.2794L45.7203 19.2794C47.2407 19.2812 48.4727 20.5133 48.4745 22.0337L48.4745 44.0676Z" fill="rgb(220,112,0)" fill-rule="nonzero" />
					<path id="Shape" d="M45.7203 22.5847L20.3813 22.5847C19.4686 22.5847 18.7288 23.3246 18.7288 24.2373L18.7288 44.0678C18.7288 44.9804 19.4686 45.7203 20.3813 45.7203L45.7203 45.7203C46.633 45.7203 47.3728 44.9804 47.3728 44.0678L47.3728 24.2373C47.3728 23.3246 46.633 22.5847 45.7203 22.5847ZM33.0508 33.5268L27.0515 30.2966L33.0508 27.0664L39.0501 30.2966L33.0508 33.5268ZM39.661 31.2187L39.661 37.6779L33.6016 40.9423L33.6016 34.483L39.661 31.2187ZM32.4999 34.483L32.4999 40.9423L26.4406 37.6779L26.4406 31.2187L32.4999 34.483ZM19.8305 24.2373C19.8305 23.933 20.0771 23.6864 20.3813 23.6864L32.4999 23.6864L32.4999 26.1101L25.6287 29.8118C25.6215 29.8157 25.6133 29.8173 25.6061 29.8218C25.4395 29.9218 25.338 30.1023 25.3389 30.2966L25.3389 34.9138L19.8305 37.668L19.8305 24.2373ZM46.2711 44.0678C46.2711 44.372 46.0245 44.6186 45.7203 44.6186L20.3813 44.6186C20.0771 44.6186 19.8305 44.372 19.8305 44.0678L19.8305 38.8997L25.3389 36.1455L25.3389 38.0084C25.339 38.211 25.4503 38.3972 25.6287 38.4932L32.7897 42.3491C32.9527 42.4369 33.1489 42.4369 33.3119 42.3491L40.4729 38.4932C40.6513 38.3972 40.7626 38.211 40.7627 38.0084L40.7627 36.1455L46.2711 38.8997L46.2711 44.0678ZM46.2711 37.668L40.7627 34.9138L40.7627 30.2966C40.7626 30.1028 40.6607 29.9234 40.4944 29.824C40.4872 29.8195 40.479 29.8179 40.4718 29.814L33.6016 26.1101L33.6016 23.6864L45.7203 23.6864C46.0245 23.6864 46.2711 23.933 46.2711 24.2373L46.2711 37.668Z" fill="rgb(220,112,0)" fill-rule="nonzero" />
					<path id="Oval" d="M19.8306 21.483C20.1349 21.483 20.3815 21.2364 20.3815 20.9322C20.3815 20.628 20.1349 20.3813 19.8306 20.3813C19.5264 20.3813 19.2798 20.628 19.2798 20.9322C19.2798 21.2364 19.5264 21.483 19.8306 21.483Z" fill="rgb(220,112,0)" fill-rule="evenodd" />
					<path id="Oval" d="M22.0338 21.483C22.338 21.483 22.5846 21.2364 22.5846 20.9322C22.5846 20.628 22.338 20.3813 22.0338 20.3813C21.7295 20.3813 21.4829 20.628 21.4829 20.9322C21.4829 21.2364 21.7295 21.483 22.0338 21.483Z" fill="rgb(220,112,0)" fill-rule="evenodd" />
					<path id="Oval" d="M24.2374 21.483C24.5416 21.483 24.7882 21.2364 24.7882 20.9322C24.7882 20.628 24.5416 20.3813 24.2374 20.3813C23.9331 20.3813 23.6865 20.628 23.6865 20.9322C23.6865 21.2364 23.9331 21.483 24.2374 21.483Z" fill="rgb(220,112,0)" fill-rule="evenodd" />
					<path id="Shape" d="M38.0084 21.483L45.7202 21.483C46.0245 21.483 46.2711 21.2364 46.2711 20.9322C46.2711 20.628 46.0245 20.3813 45.7202 20.3813L38.0084 20.3813C37.7041 20.3813 37.4575 20.628 37.4575 20.9322C37.4575 21.2364 37.7041 21.483 38.0084 21.483Z" fill="rgb(220,112,0)" fill-rule="nonzero" />
				</g>
			</g>
		</g>
	</g>
</svg>
