<svg viewBox="0 0 65 65" xmlns="http://www.w3.org/2000/svg" xmlns:xlink="http://www.w3.org/1999/xlink" width="65.000000" height="65.000000" fill="none" customFrame="#000000">
	<defs>
		<clipPath id="clipPath_4">
			<rect width="31.949152" height="31.949152" x="16.525391" y="16.525391" fill="rgb(255,255,255)" />
		</clipPath>
	</defs>
	<g id="Group 49">
		<circle id="Ellipse 14" cx="32.5" cy="32.5" r="32.5" fill="rgb(255,255,255)" />
		<g id="pc 1" clip-path="url(#clipPath_4)" customFrame="url(#clipPath_4)">
			<rect id="pc 1" width="31.949152" height="31.949152" x="16.525391" y="16.525391" fill="rgb(255,255,255)" fill-opacity="0" />
			<g id="Page 1">
				<g id="016   PC and Monitor">
					<path id="Shape" d="M19.1879 29.305C19.3295 29.3058 19.4655 29.2503 19.566 29.1506L21.6959 27.0206C21.9047 26.8118 21.9047 26.4733 21.6959 26.2645C21.4871 26.0557 21.1486 26.0557 20.9398 26.2645L18.8099 28.3945C18.709 28.4944 18.6523 28.6305 18.6523 28.7725C18.6523 28.9145 18.709 29.0506 18.8099 29.1506C18.9103 29.2503 19.0464 29.3058 19.1879 29.305Z" fill="rgb(220,112,0)" fill-rule="nonzero" />
					<path id="Shape" d="M19.1879 32.4999C19.3295 32.5007 19.4655 32.4452 19.566 32.3455L24.8908 27.0206C25.0996 26.8118 25.0996 26.4733 24.8908 26.2645C24.682 26.0557 24.3435 26.0557 24.1347 26.2645L18.8099 31.5894C18.709 31.6894 18.6523 31.8255 18.6523 31.9674C18.6523 32.1094 18.709 32.2455 18.8099 32.3455C18.9103 32.4452 19.0464 32.5007 19.1879 32.4999Z" fill="rgb(220,112,0)" fill-rule="nonzero" />
					<path id="Shape" d="M46.8771 16.5254L33.0325 16.5254C32.1502 16.5254 31.435 17.2406 31.435 18.1228L31.435 23.9802L19.1878 23.9802C17.7174 23.9802 16.5254 25.1722 16.5254 26.6426L16.5254 40.4873C16.5254 41.9577 17.7174 43.1497 19.1878 43.1497L25.0452 43.1497L25.0452 45.2796L23.4477 45.2796C22.5655 45.2796 21.8503 45.9948 21.8503 46.8771C21.8503 47.7593 22.5655 48.4745 23.4477 48.4745L46.8771 48.4745C47.7593 48.4745 48.4745 47.7593 48.4745 46.8771L48.4745 18.1228C48.4745 17.2406 47.7593 16.5254 46.8771 16.5254ZM19.1878 25.0452L38.3573 25.0452C39.2396 25.0452 39.9548 25.7604 39.9548 26.6426L39.9548 39.4223L17.5904 39.4223L17.5904 26.6426C17.5904 25.7604 18.3056 25.0452 19.1878 25.0452ZM17.5904 40.4873L39.9548 40.4873C39.9548 41.3695 39.2396 42.0847 38.3573 42.0847L19.1878 42.0847C18.3056 42.0847 17.5904 41.3695 17.5904 40.4873ZM26.1101 43.1497L31.435 43.1497L31.435 45.2796L26.1101 45.2796L26.1101 43.1497ZM33.0325 47.4096L23.4477 47.4096C23.1536 47.4096 22.9152 47.1712 22.9152 46.8771C22.9152 46.583 23.1536 46.3446 23.4477 46.3446L34.0974 46.3446C34.3915 46.3446 34.6299 46.583 34.6299 46.8771C34.6299 47.1712 34.3915 47.4096 34.0974 47.4096L33.0325 47.4096ZM47.4096 46.8771C47.4096 47.1712 47.1712 47.4096 46.8771 47.4096L35.599 47.4096C35.7716 46.9214 35.6969 46.3798 35.3986 45.9566C35.1002 45.5334 34.6152 45.2811 34.0974 45.2796L32.5 45.2796L32.5 43.1497L38.3573 43.1497C39.8277 43.1497 41.0197 41.9577 41.0197 40.4873L41.0197 26.6426C41.0197 25.1722 39.8277 23.9802 38.3573 23.9802L32.5 23.9802L32.5 18.1228C32.5 17.8288 32.7384 17.5904 33.0325 17.5904L46.8771 17.5904C47.1712 17.5904 47.4096 17.8288 47.4096 18.1228L47.4096 46.8771Z" fill="rgb(220,112,0)" fill-rule="nonzero" />
					<path id="Shape" d="M45.2796 19.188L34.6299 19.188C34.0417 19.188 33.5649 19.6648 33.5649 20.253L33.5649 21.3179C33.5649 21.9061 34.0417 22.3829 34.6299 22.3829L45.2796 22.3829C45.8678 22.3829 46.3446 21.9061 46.3446 21.3179L46.3446 20.253C46.3446 19.6648 45.8678 19.188 45.2796 19.188ZM34.6299 21.3179L34.6299 20.253L45.2796 20.253L45.2796 21.3179L34.6299 21.3179Z" fill="rgb(220,112,0)" fill-rule="nonzero" />
					<path id="Shape" d="M44.2146 27.1751C45.0969 27.1751 45.8121 26.4599 45.8121 25.5777C45.8121 24.6954 45.0969 23.9802 44.2146 23.9802C43.3324 23.9802 42.6172 24.6954 42.6172 25.5777C42.6172 26.4599 43.3324 27.1751 44.2146 27.1751ZM44.2146 25.0452C44.5087 25.0452 44.7471 25.2836 44.7471 25.5777C44.7471 25.8718 44.5087 26.1102 44.2146 26.1102C43.9206 26.1102 43.6822 25.8718 43.6822 25.5777C43.6822 25.2836 43.9206 25.0452 44.2146 25.0452Z" fill="rgb(220,112,0)" fill-rule="nonzero" />
					<path id="Shape" d="M45.8121 29.8374C45.8121 28.9552 45.0969 28.24 44.2146 28.24C43.3324 28.24 42.6172 28.9552 42.6172 29.8374C42.6172 30.7197 43.3324 31.4349 44.2146 31.4349C45.0969 31.4349 45.8121 30.7197 45.8121 29.8374ZM44.2146 30.3699C43.9206 30.3699 43.6822 30.1315 43.6822 29.8374C43.6822 29.5434 43.9206 29.305 44.2146 29.305C44.5087 29.305 44.7471 29.5434 44.7471 29.8374C44.7471 30.1315 44.5087 30.3699 44.2146 30.3699Z" fill="rgb(220,112,0)" fill-rule="nonzero" />
					<path id="Shape" d="M37.2923 44.2146C36.9982 44.2146 36.7598 44.453 36.7598 44.7471L36.7598 45.8121C36.7598 46.1061 36.9982 46.3445 37.2923 46.3445C37.5863 46.3445 37.8247 46.1061 37.8247 45.8121L37.8247 44.7471C37.8247 44.453 37.5863 44.2146 37.2923 44.2146Z" fill="rgb(220,112,0)" fill-rule="nonzero" />
					<path id="Shape" d="M39.4224 44.2146C39.1283 44.2146 38.8899 44.453 38.8899 44.7471L38.8899 45.8121C38.8899 46.1061 39.1283 46.3445 39.4224 46.3445C39.7165 46.3445 39.9549 46.1061 39.9549 45.8121L39.9549 44.7471C39.9549 44.453 39.7165 44.2146 39.4224 44.2146Z" fill="rgb(220,112,0)" fill-rule="nonzero" />
					<path id="Shape" d="M41.5523 44.2146C41.2582 44.2146 41.0198 44.453 41.0198 44.7471L41.0198 45.8121C41.0198 46.1061 41.2582 46.3445 41.5523 46.3445C41.8463 46.3445 42.0847 46.1061 42.0847 45.8121L42.0847 44.7471C42.0847 44.453 41.8463 44.2146 41.5523 44.2146Z" fill="rgb(220,112,0)" fill-rule="nonzero" />
					<path id="Shape" d="M43.6821 44.2146C43.3881 44.2146 43.1497 44.453 43.1497 44.7471L43.1497 45.8121C43.1497 46.1061 43.3881 46.3445 43.6821 46.3445C43.9762 46.3445 44.2146 46.1061 44.2146 45.8121L44.2146 44.7471C44.2146 44.453 43.9762 44.2146 43.6821 44.2146Z" fill="rgb(220,112,0)" fill-rule="nonzero" />
					<path id="Shape" d="M45.8123 44.2146C45.5182 44.2146 45.2798 44.453 45.2798 44.7471L45.2798 45.8121C45.2798 46.1061 45.5182 46.3445 45.8123 46.3445C46.1064 46.3445 46.3448 46.1061 46.3448 45.8121L46.3448 44.7471C46.3448 44.453 46.1064 44.2146 45.8123 44.2146Z" fill="rgb(220,112,0)" fill-rule="nonzero" />
				</g>
			</g>
		</g>
	</g>
</svg>
