<svg viewBox="0 0 65 65" xmlns="http://www.w3.org/2000/svg" xmlns:xlink="http://www.w3.org/1999/xlink" width="65.000000" height="65.000000" fill="none" customFrame="#000000">
	<defs>
		<clipPath id="clipPath_5">
			<rect width="39.661018" height="39.661018" x="13.220215" y="13.220215" fill="rgb(255,255,255)" />
		</clipPath>
	</defs>
	<g id="Group 50">
		<circle id="Ellipse 15" cx="32.5" cy="32.5" r="32.5" fill="rgb(255,255,255)" />
		<g id="ps4 1" clip-path="url(#clipPath_5)" customFrame="url(#clipPath_5)">
			<rect id="ps4 1" width="39.661018" height="39.661018" x="13.220215" y="13.220215" fill="rgb(255,255,255)" fill-opacity="0" />
			<g id="Group">
				<g id="Group">
					<path id="Vector" d="M21.4055 27.2412L13.2202 27.2412L13.2202 29.5651L21.4055 29.5651C22.0462 29.5651 22.5674 30.0863 22.5674 30.727C22.5674 31.3677 22.0462 31.889 21.4055 31.889L16.706 31.889C14.784 31.889 13.2202 33.4527 13.2202 35.3748L13.2202 38.8606L15.5441 38.8606L15.5441 35.3748C15.5441 34.7341 16.0653 34.2129 16.706 34.2129L21.4055 34.2129C23.3276 34.2129 24.8913 32.6491 24.8913 30.727C24.8913 28.805 23.3276 27.2412 21.4055 27.2412Z" fill="rgb(220,112,0)" fill-rule="nonzero" />
				</g>
			</g>
			<g id="Group">
				<g id="Group">
					<path id="Vector" d="M33.6318 27.2412C31.7097 27.2412 30.146 28.805 30.146 30.727L30.146 35.3748C30.146 36.0155 29.6247 36.5368 28.984 36.5368L23.7295 36.5368L23.7295 38.8606L28.984 38.8606C30.9061 38.8606 32.4699 37.2969 32.4699 35.3748L32.4699 30.727C32.4699 30.0863 32.9911 29.5651 33.6318 29.5651L38.8864 29.5651L38.8864 27.2412L33.6318 27.2412Z" fill="rgb(220,112,0)" fill-rule="nonzero" />
				</g>
			</g>
			<g id="Group">
				<g id="Group">
					<path id="Vector" d="M50.5575 34.2127L50.5575 29.5651C50.5575 28.2837 49.515 27.2412 48.2336 27.2412C47.7935 27.2412 47.3647 27.3652 46.9935 27.5996L39.6346 32.2473C38.9559 32.6759 38.5508 33.4107 38.5508 34.2129C38.5508 35.4943 39.5933 36.5368 40.8747 36.5368L48.2336 36.5368L48.2336 38.8606L50.5575 38.8606L50.5575 36.5368L52.8814 36.5368L52.8814 34.2129L50.5575 34.2127ZM48.2336 34.2126L40.8755 34.2122L48.2336 29.5651L48.2336 34.2126Z" fill="rgb(220,112,0)" fill-rule="nonzero" />
				</g>
			</g>
		</g>
	</g>
</svg>
