<svg viewBox="0 0 55 55" xmlns="http://www.w3.org/2000/svg" xmlns:xlink="http://www.w3.org/1999/xlink" width="55.000000" height="55.000000" fill="none" customFrame="#000000">
	<defs>
		<clipPath id="clipPath_0">
			<rect width="24.000000" height="24.000000" x="15.500000" y="15.500000" fill="rgb(255,255,255)" />
		</clipPath>
	</defs>
	<g id="Icon/user">
		<rect id="Rectangle 271" width="55.000000" height="55.000000" x="0.000000" y="0.000000" rx="27.500000" fill="rgb(255,235.875,235.875)" />
		<g id="Group 1216">
			<g id="heroicons:sm-user" clip-path="url(#clipPath_0)" customFrame="url(#clipPath_0)">
				<rect id="heroicons:sm-user" width="24.000000" height="24.000000" x="15.500000" y="15.500000" fill="rgb(255,255,255)" fill-opacity="0" />
				<g id="Group">
					<path id="Vector" d="M27.5 26.3001C28.4548 26.3001 29.3705 25.9208 30.0456 25.2457C30.7207 24.5706 31.1 23.6549 31.1 22.7001C31.1 21.7453 30.7207 20.8296 30.0456 20.1545C29.3705 19.4794 28.4548 19.1001 27.5 19.1001C26.5452 19.1001 25.6296 19.4794 24.9544 20.1545C24.2793 20.8296 23.9 21.7453 23.9 22.7001C23.9 23.6549 24.2793 24.5706 24.9544 25.2457C25.6296 25.9208 26.5452 26.3001 27.5 26.3001ZM22.3987 37.1001C20.5769 37.1001 19.0422 35.5687 19.7394 33.8856C20.1616 32.8664 20.7803 31.9404 21.5603 31.1604C22.3403 30.3804 23.2663 29.7616 24.2855 29.3395C25.3046 28.9174 26.3969 28.7001 27.5 28.7001C28.6031 28.7001 29.6954 28.9174 30.7145 29.3395C31.7337 29.7616 32.6597 30.3804 33.4397 31.1604C34.2197 31.9404 34.8385 32.8664 35.2606 33.8856C35.9578 35.5687 34.4231 37.1001 32.6013 37.1001L22.3987 37.1001Z" fill="rgb(220,112,0)" fill-rule="evenodd" />
				</g>
			</g>
		</g>
	</g>
</svg>
