<svg viewBox="0 0 55 55" xmlns="http://www.w3.org/2000/svg" xmlns:xlink="http://www.w3.org/1999/xlink" width="55.000000" height="55.000000" fill="none" customFrame="#000000">
	<defs>
		<clipPath id="clipPath_2">
			<rect width="24.000000" height="24.000000" x="15.500000" y="15.500000" fill="rgb(255,255,255)" />
		</clipPath>
	</defs>
	<g id="Icon/Server">
		<rect id="Rectangle 272" width="55.000000" height="55.000000" x="0.000000" y="0.000000" rx="27.500000" fill="rgb(255,235.875,235.875)" />
		<g id="Group 1217">
			<g id="bx:bxs-server" clip-path="url(#clipPath_2)" customFrame="url(#clipPath_2)">
				<rect id="bx:bxs-server" width="24.000000" height="24.000000" x="15.500000" y="15.500000" fill="rgb(255,255,255)" fill-opacity="0" />
				<path id="Vector" d="M28.5 31.5L30.5 31.5L30.5 33.5L28.5 33.5L28.5 31.5ZM32.5 31.5L34.5 31.5L34.5 33.5L32.5 33.5L32.5 31.5ZM28.5 21.5L30.5 21.5L30.5 23.5L28.5 23.5L28.5 21.5ZM32.5 21.5L34.5 21.5L34.5 23.5L32.5 23.5L32.5 21.5Z" fill-rule="nonzero" />
				<path id="Vector" d="M35.5 18.5L19.5 18.5C18.9696 18.5 18.4609 18.7107 18.0858 19.0858C17.7107 19.4609 17.5 19.9696 17.5 20.5L17.5 24.5C17.5 25.0304 17.7107 25.5391 18.0858 25.9142C18.4609 26.2893 18.9696 26.5 19.5 26.5L35.5 26.5C36.0304 26.5 36.5391 26.2893 36.9142 25.9142C37.2893 25.5391 37.5 25.0304 37.5 24.5L37.5 20.5C37.5 19.9696 37.2893 19.4609 36.9142 19.0858C36.5391 18.7107 36.0304 18.5 35.5 18.5ZM29.5 23.5C28.9477 23.5 28.5 23.0523 28.5 22.5C28.5 21.9477 28.9477 21.5 29.5 21.5C30.0523 21.5 30.5 21.9477 30.5 22.5C30.5 23.0523 30.0523 23.5 29.5 23.5ZM33.5 23.5C32.9477 23.5 32.5 23.0523 32.5 22.5C32.5 21.9477 32.9477 21.5 33.5 21.5C34.0523 21.5 34.5 21.9477 34.5 22.5C34.5 23.0523 34.0523 23.5 33.5 23.5ZM35.5 28.5L19.5 28.5C18.9696 28.5 18.4609 28.7107 18.0858 29.0858C17.7107 29.4609 17.5 29.9696 17.5 30.5L17.5 34.5C17.5 35.0304 17.7107 35.5391 18.0858 35.9142C18.4609 36.2893 18.9696 36.5 19.5 36.5L35.5 36.5C36.0304 36.5 36.5391 36.2893 36.9142 35.9142C37.2893 35.5391 37.5 35.0304 37.5 34.5L37.5 30.5C37.5 29.9696 37.2893 29.4609 36.9142 29.0858C36.5391 28.7107 36.0304 28.5 35.5 28.5ZM29.5 33.5C28.9477 33.5 28.5 33.0523 28.5 32.5C28.5 31.9477 28.9477 31.5 29.5 31.5C30.0523 31.5 30.5 31.9477 30.5 32.5C30.5 33.0523 30.0523 33.5 29.5 33.5ZM33.5 33.5C32.9477 33.5 32.5 33.0523 32.5 32.5C32.5 31.9477 32.9477 31.5 33.5 31.5C34.0523 31.5 34.5 31.9477 34.5 32.5C34.5 33.0523 34.0523 33.5 33.5 33.5Z" fill="rgb(220,112,0)" fill-rule="nonzero" />
			</g>
		</g>
	</g>
</svg>
