<svg viewBox="0 0 55 55" xmlns="http://www.w3.org/2000/svg" xmlns:xlink="http://www.w3.org/1999/xlink" width="55.000000" height="55.000000" fill="none" customFrame="#000000">
	<defs>
		<clipPath id="clipPath_1">
			<rect width="24.000000" height="24.000000" x="15.500000" y="15.500000" fill="rgb(255,255,255)" />
		</clipPath>
	</defs>
	<g id="Icon/location">
		<rect id="Rectangle 270" width="55.000000" height="55.000000" x="0.000000" y="0.000000" rx="27.500000" fill="rgb(255,235.875,235.875)" />
		<g id="Group 1215">
			<g id="gridicons:location" clip-path="url(#clipPath_1)" customFrame="url(#clipPath_1)">
				<rect id="gridicons:location" width="24.000000" height="24.000000" x="15.500000" y="15.500000" fill="rgb(255,255,255)" fill-opacity="0" />
				<path id="Vector" d="M34.5 24.5C34.5 23.5807 34.3189 22.6705 33.9672 21.8212C33.6154 20.9719 33.0998 20.2003 32.4497 19.5503C31.7997 18.9002 31.0281 18.3846 30.1788 18.0328C29.3295 17.6811 28.4193 17.5 27.5 17.5C26.5807 17.5 25.6705 17.6811 24.8212 18.0328C23.9719 18.3846 23.2003 18.9002 22.5503 19.5503C21.9002 20.2003 21.3846 20.9719 21.0328 21.8212C20.6811 22.6705 20.5 23.5807 20.5 24.5C20.5 25.887 20.91 27.177 21.605 28.265L21.597 28.265C23.957 31.96 27.5 37.5 27.5 37.5L33.403 28.265L33.396 28.265C34.1164 27.1414 34.4995 25.8347 34.5 24.5ZM27.5 27.5C26.7043 27.5 25.9413 27.1839 25.3787 26.6213C24.8161 26.0587 24.5 25.2957 24.5 24.5C24.5 23.7043 24.8161 22.9413 25.3787 22.3787C25.9413 21.8161 26.7043 21.5 27.5 21.5C28.2957 21.5 29.0587 21.8161 29.6213 22.3787C30.1839 22.9413 30.5 23.7043 30.5 24.5C30.5 25.2957 30.1839 26.0587 29.6213 26.6213C29.0587 27.1839 28.2957 27.5 27.5 27.5Z" fill="rgb(220,112,0)" fill-rule="nonzero" />
			</g>
		</g>
	</g>
</svg>
