<svg width="12.000000" height="10.291260" viewBox="0 0 12 10.2913" fill="none" xmlns="http://www.w3.org/2000/svg" xmlns:xlink="http://www.w3.org/1999/xlink">
	<desc>
			Created with Pixso.
	</desc>
	<defs/>
	<path id="Vector" d="M0.72 5.98C0.77 5.99 0.82 5.99 0.86 5.99L9.33 5.99L9.15 6.08C8.97 6.17 8.8 6.28 8.66 6.42L6.29 8.8C5.97 9.1 5.92 9.58 6.16 9.93C6.44 10.32 6.98 10.4 7.36 10.12C7.39 10.1 7.42 10.07 7.45 10.05L11.74 5.75C12.08 5.42 12.08 4.87 11.74 4.54C11.74 4.54 11.74 4.54 11.74 4.54L7.45 0.25C7.11 -0.09 6.57 -0.09 6.24 0.25C6.21 0.27 6.19 0.3 6.16 0.33C5.92 0.69 5.97 1.17 6.29 1.47L8.66 3.85C8.78 3.97 8.93 4.08 9.09 4.16L9.34 4.28L0.91 4.28C0.47 4.26 0.09 4.57 0.01 5C-0.07 5.47 0.25 5.91 0.72 5.98Z" fill="#FFFFFF" fill-opacity="1.000000" fill-rule="nonzero"/>
</svg>
