<svg viewBox="0 0 62 62" xmlns="http://www.w3.org/2000/svg" xmlns:xlink="http://www.w3.org/1999/xlink" width="62.000000" height="62.000000" fill="none" customFrame="#000000">
	<defs>
		<g id="pixso_custom_effect_6">
			<effect x="0.000000" y="4.000000" visibility="visible" fill="rgb(0,0,0)" fill-opacity="0.150000006" effectType="dropShadow" showShadowBehind="1" stdDeviation="14" radius="0" />
		</g>
		<filter id="filter_6" width="62.000000" height="62.000000" x="0.000000" y="0.000000" filterUnits="userSpaceOnUse" customEffect="url(#pixso_custom_effect_6)" color-interpolation-filters="sRGB">
			<feFlood flood-opacity="0" result="BackgroundImageFix" />
			<feOffset dx="0.000000" dy="4.000000" in="SourceAlpha" />
			<feGaussianBlur stdDeviation="4.66666651" />
			<feColorMatrix type="matrix" values="0 0 0 0 0 0 0 0 0 0 0 0 0 0 0 0 0 0 0.15 0 " />
			<feBlend result="effect_dropShadow_1" in2="BackgroundImageFix" mode="normal" />
			<feBlend result="shape" in="SourceGraphic" in2="effect_dropShadow_1" mode="normal" />
		</filter>
		<clipPath id="clipPath_18">
			<rect width="13.000000" height="13.000000" x="25.000000" y="20.000000" fill="rgb(255,255,255)" />
		</clipPath>
	</defs>
	<g id="Group 11">
		<g id="Group 6">
			<g filter="url(#filter_6)">
				<circle id="Ellipse 1" cx="31" cy="27" r="17" fill="rgb(28,20,15)" />
			</g>
		</g>
		<g id="instagram 1" clip-path="url(#clipPath_18)" customFrame="url(#clipPath_18)">
			<rect id="instagram 1" width="13.000000" height="13.000000" x="25.000000" y="20.000000" fill="rgb(255,255,255)" fill-opacity="0" />
			<path id="Vector" d="M34.481 20L28.519 20C26.5786 20 25 21.5786 25 23.519L25 29.4811C25 31.4214 26.5786 33 28.519 33L34.4811 33C36.4214 33 38 31.4214 38 29.4811L38 23.519C38 21.5786 36.4214 20 34.481 20L34.481 20ZM37.2379 29.4811C37.2379 31.0012 36.0012 32.2379 34.481 32.2379L28.519 32.2379C26.9988 32.2379 25.7621 31.0012 25.7621 29.4811L25.7621 23.519C25.7621 21.9988 26.9988 20.7621 28.519 20.7621L34.4811 20.7621C36.0012 20.7621 37.2379 21.9988 37.2379 23.519L37.2379 29.4811Z" fill="rgb(255,255,255)" fill-rule="nonzero" />
			<path id="Vector" d="M31.4999 22.9454C29.5399 22.9454 27.9453 24.54 27.9453 26.5C27.9453 28.46 29.5399 30.0546 31.4999 30.0546C33.4599 30.0546 35.0545 28.46 35.0545 26.5C35.0545 24.54 33.4599 22.9454 31.4999 22.9454ZM31.4999 29.2925C29.9602 29.2925 28.7074 28.0398 28.7074 26.5C28.7074 24.9603 29.9602 23.7075 31.4999 23.7075C33.0397 23.7075 34.2924 24.9603 34.2924 26.5C34.2924 28.0398 33.0397 29.2925 31.4999 29.2925Z" fill="rgb(255,255,255)" fill-rule="nonzero" />
			<path id="Vector" d="M35.1397 21.683C34.5605 21.683 34.0894 22.1542 34.0894 22.7333C34.0894 23.3125 34.5605 23.7838 35.1397 23.7838C35.7189 23.7838 36.1901 23.3125 36.1901 22.7333C36.1901 22.1541 35.7189 21.683 35.1397 21.683ZM35.1397 23.0215C34.9808 23.0215 34.8515 22.8922 34.8515 22.7333C34.8515 22.5743 34.9808 22.4451 35.1397 22.4451C35.2987 22.4451 35.428 22.5743 35.428 22.7333C35.428 22.8922 35.2987 23.0215 35.1397 23.0215Z" fill="rgb(255,255,255)" fill-rule="nonzero" />
		</g>
	</g>
</svg>
