<svg viewBox="0 0 62 62" xmlns="http://www.w3.org/2000/svg" xmlns:xlink="http://www.w3.org/1999/xlink" width="62.000000" height="62.000000" fill="none" customFrame="#000000">
	<defs>
		<g id="pixso_custom_effect_4">
			<effect x="0.000000" y="4.000000" visibility="visible" fill="rgb(0,0,0)" fill-opacity="0.150000006" effectType="dropShadow" showShadowBehind="1" stdDeviation="14" radius="0" />
		</g>
		<filter id="filter_4" width="62.000000" height="62.000000" x="0.000000" y="0.000000" filterUnits="userSpaceOnUse" customEffect="url(#pixso_custom_effect_4)" color-interpolation-filters="sRGB">
			<feFlood flood-opacity="0" result="BackgroundImageFix" />
			<feOffset dx="0.000000" dy="4.000000" in="SourceAlpha" />
			<feGaussianBlur stdDeviation="4.66666651" />
			<feColorMatrix type="matrix" values="0 0 0 0 0 0 0 0 0 0 0 0 0 0 0 0 0 0 0.15 0 " />
			<feBlend result="effect_dropShadow_1" in2="BackgroundImageFix" mode="normal" />
			<feBlend result="shape" in="SourceGraphic" in2="effect_dropShadow_1" mode="normal" />
		</filter>
		<clipPath id="clipPath_16">
			<rect width="11.000000" height="11.000000" x="25.000000" y="21.000000" fill="rgb(255,255,255)" />
		</clipPath>
	</defs>
	<g id="Group 9">
		<g id="Group 8">
			<g filter="url(#filter_4)">
				<circle id="Ellipse 1" cx="31" cy="27" r="17" fill="rgb(28,20,15)" />
			</g>
		</g>
		<g id="linkedin 1" clip-path="url(#clipPath_16)" customFrame="url(#clipPath_16)">
			<rect id="linkedin 1" width="11.000000" height="11.000000" x="25.000000" y="21.000000" fill="rgb(255,255,255)" fill-opacity="0" />
			<path id="Vector" d="M35.9973 32L35.9973 31.9996L36.0001 31.9996L36.0001 27.9653C36.0001 25.9917 35.5752 24.4714 33.268 24.4714C32.1588 24.4714 31.4145 25.0801 31.1106 25.6571L31.0785 25.6571L31.0785 24.6557L28.8909 24.6557L28.8909 31.9996L31.1688 31.9996L31.1688 28.3631C31.1688 27.4057 31.3503 26.4799 32.536 26.4799C33.7043 26.4799 33.7217 27.5725 33.7217 28.4246L33.7217 32L35.9973 32Z" fill="rgb(255,255,255)" fill-rule="nonzero" />
			<path id="Vector" d="M25.1816 24.6561L27.4623 24.6561L27.4623 32L25.1816 32L25.1816 24.6561Z" fill="rgb(255,255,255)" fill-rule="nonzero" />
			<path id="Vector" d="M26.3209 21C25.5917 21 25 21.5917 25 22.3209C25 23.0501 25.5917 23.6542 26.3209 23.6542C27.0501 23.6542 27.6418 23.0501 27.6418 22.3209C27.6414 21.5917 27.0497 21 26.3209 21L26.3209 21Z" fill="rgb(255,255,255)" fill-rule="nonzero" />
		</g>
	</g>
</svg>
